Coordinates
version=1
nRows=26
nColumns=24
inDegrees=yes

Units are S.I. units (second, meters, Newtons, ...)
Angles are in degrees.

endheader
time	pelvis_tilt	pelvis_list	pelvis_rotation	pelvis_tx	pelvis_ty	pelvis_tz	hip_flexion_r	hip_adduction_r	hip_rotation_r	knee_angle_r	ankle_angle_r	subtalar_angle_r	mtp_angle_r	hip_flexion_l	hip_adduction_l	hip_rotation_l	knee_angle_l	ankle_angle_l	subtalar_angle_l	mtp_angle_l	lumbar_extension	lumbar_bending	lumbar_rotation
      0.01000000	     45.78735212	      2.26367018	     -1.17106632	     -0.82401363	      1.01743406	     -0.29294352	     26.93946125	    -13.62294822	      8.59351384	      8.58411002	    -21.49310564	      9.58806450	      0.00000000	     15.13021299	    -11.75442847	     -2.33501241	    -60.72817063	    -20.22538220	     15.31649477	      0.00000000	    -36.39849003	    -10.03772382	     -2.04427433
      0.02000000	     45.84184166	      2.31067556	     -1.22617613	     -0.82424206	      1.01705786	     -0.29252150	     26.91623933	    -13.62899713	      8.59908245	      8.63284267	    -21.48177143	      9.60861935	      0.00000000	     15.06559841	    -11.69425384	     -2.40511943	    -60.79811487	    -20.26516166	     15.27860495	      0.00000000	    -36.44155078	    -10.14649385	     -2.00925068
      0.03000000	     45.86696800	      2.32823964	     -1.23095483	     -0.82436520	      1.01690608	     -0.29231148	     26.90604638	    -13.63635225	      8.61213093	      8.65177171	    -21.47855208	      9.61528787	      0.00000000	     15.01024279	    -11.67813735	     -2.47164895	    -60.79023033	    -20.28415260	     15.21608273	      0.00000000	    -36.47508596	    -10.20170129	     -2.00047468
      0.04000000	     45.87892163	      2.33063284	     -1.22462833	     -0.82437926	      1.01694182	     -0.29229234	     26.90183791	    -13.64175425	      8.62273714	      8.65175538	    -21.47874126	      9.61228341	      0.00000000	     14.96059452	    -11.68193566	     -2.52944869	    -60.74205410	    -20.29738587	     15.14781803	      0.00000000	    -36.50158394	    -10.22488150	     -2.00468508
      0.05000000	     45.89162876	      2.33050294	     -1.23436586	     -0.82433744	      1.01705094	     -0.29235197	     26.89844683	    -13.64224292	      8.62457653	      8.64468627	    -21.47828512	      9.60510662	      0.00000000	     14.91257060	    -11.68444071	     -2.57488809	    -60.68902492	    -20.31705161	     15.09213792	      0.00000000	    -36.52452039	    -10.23717874	     -2.00809527
      0.06000000	     45.91103451	      2.33496440	     -1.26466346	     -0.82431477	      1.01712097	     -0.29238145	     26.89318336	    -13.63753630	      8.61862030	      8.63945153	    -21.47538429	      9.59930046	      0.00000000	     14.86364773	    -11.67612860	     -2.60788224	    -60.65212559	    -20.34676548	     15.05968211	      0.00000000	    -36.54773236	    -10.25241526	     -2.00111328
      0.07000000	     45.93603449	      2.34508459	     -1.30457558	     -0.82433444	      1.01713437	     -0.29236848	     26.88416008	    -13.63089919	      8.61155394	      8.63974021	    -21.47047842	      9.59897037	      0.00000000	     14.81496064	    -11.65905459	     -2.63173815	    -60.63551598	    -20.38140767	     15.05101380	      0.00000000	    -36.57408434	    -10.27509917	     -1.98087421
      0.08000000	     45.96320689	      2.35765415	     -1.34032062	     -0.82436757	      1.01713572	     -0.29235091	     26.86995541	    -13.62705966	      8.61101034	      8.64461969	    -21.46508089	      9.60555909	      0.00000000	     14.77082752	    -11.64071171	     -2.65131573	    -60.63188723	    -20.41133234	     15.05872546	      0.00000000	    -36.60389919	    -10.30226180	     -1.95131862
      0.09000000	     45.98980688	      2.36872724	     -1.36356420	     -0.82438861	      1.01715167	     -0.29234565	     26.85095585	    -13.62885480	      8.62090766	      8.65101047	    -21.46039402	      9.61753829	      0.00000000	     14.73519058	    -11.62791150	     -2.67030162	    -60.63108604	    -20.42801292	     15.07210563	      0.00000000	    -36.63463259	    -10.32741959	     -1.92086854
      0.10000000	     46.01371760	      2.37607846	     -1.37335105	     -0.82439374	      1.01718107	     -0.29234475	     26.83013622	    -13.63556708	      8.63925364	      8.65605485	    -21.45655775	      9.63123324	      0.00000000	     14.70855503	    -11.62338285	     -2.68946197	    -60.62686977	    -20.42823514	     15.08187302	      0.00000000	    -36.66239372	    -10.34483238	     -1.89851875
      0.11000000	     46.03270748	      2.37942772	     -1.37386957	     -0.82439485	      1.01720888	     -0.29234059	     26.81168770	    -13.64379075	      8.65911016	      8.65799714	    -21.45281516	      9.64242556	      0.00000000	     14.68839504	    -11.62518561	     -2.70704260	    -60.61887660	    -20.41530795	     15.08309983	      0.00000000	    -36.68401777	    -10.35218151	     -1.89003712
      0.12000000	     46.04546659	      2.37992191	     -1.37104851	     -0.82440573	      1.01722069	     -0.29234016	     26.79870110	    -13.64977118	      8.67195111	      8.65587142	    -21.44824951	      9.64805407	      0.00000000	     14.67239938	    -11.62873793	     -2.72047897	    -60.61034635	    -20.39734451	     15.07566060	      0.00000000	    -36.69820945	    -10.35078584	     -1.89599639
      0.13000000	     46.05301744	      2.37924539	     -1.36947530	     -0.82442034	      1.01722052	     -0.29234981	     26.79214681	    -13.65162940	      8.67165468	      8.64914754	    -21.44249745	      9.64734019	      0.00000000	     14.66067691	    -11.62987076	     -2.72799139	    -60.60471002	    -20.38370955	     15.06273074	      0.00000000	    -36.70567824	    -10.34415844	     -1.91227487
      0.14000000	     46.05743651	      2.37879917	     -1.37054578	     -0.82442505	      1.01722143	     -0.29236475	     26.79114418	    -13.64993876	      8.65714734	      8.63776225	    -21.43600899	      9.64199946	      0.00000000	     14.65438286	    -11.62684263	     -2.72930702	    -60.60381000	    -20.38119596	     15.04852462	      0.00000000	    -36.70864505	    -10.33614187	     -1.93238452
      0.15000000	     46.05984090	      2.37958079	     -1.37280593	     -0.82442378	      1.01722377	     -0.29238367	     26.79350951	    -13.64648016	      8.63252022	      8.62231812	    -21.42975780	      9.63557618	      0.00000000	     14.65349777	    -11.62047838	     -2.72562837	    -60.60761448	    -20.39151358	     15.03642951	      0.00000000	    -36.70980439	    -10.32937763	     -1.95034513
      0.16000000	     46.06066517	      2.38196785	     -1.37402634	     -0.82442623	      1.01721797	     -0.29240694	     26.79649645	    -13.64284665	      8.60479482	      8.60419566	    -21.42461753	      9.63216076	      0.00000000	     14.65672654	    -11.61295074	     -2.71922075	    -60.61434358	    -20.41100353	     15.02814844	      0.00000000	    -36.71115372	    -10.32469517	     -1.96281612
      0.17000000	     46.06064714	      2.38527894	     -1.37303262	     -0.82443060	      1.01720311	     -0.29242313	     26.79780323	    -13.63992793	      8.58066804	      8.58542183	    -21.42080432	      9.63489521	      0.00000000	     14.66218520	    -11.60630627	     -2.71268083	    -60.62125837	    -20.43240407	     15.02383360	      0.00000000	    -36.71330401	    -10.32154863	     -1.96968616
      0.18000000	     46.06040586	      2.38824443	     -1.37002910	     -0.82443175	      1.01718968	     -0.29242510	     26.79636952	    -13.63775517	      8.56383538	      8.56831150	    -21.41771920	      9.64472858	      0.00000000	     14.66730390	    -11.60164054	     -2.70801023	    -60.62616547	    -20.44774184	     15.02278542	      0.00000000	    -36.71559674	    -10.31900404	     -1.97316159
      0.19000000	     46.05990986	      2.39013636	     -1.36619961	     -0.82442739	      1.01718821	     -0.29242283	     26.79224601	    -13.63557936	      8.55389888	      8.55490321	    -21.41428086	      9.65984337	      0.00000000	     14.66952779	    -11.59903024	     -2.70603748	    -60.62828856	    -20.45128328	     15.02418142	      0.00000000	    -36.71684994	    -10.31660882	     -1.97611381
      0.20000000	     46.05875845	      2.39150213	     -1.36317776	     -0.82441942	      1.01719551	     -0.29242674	     26.78579434	    -13.63228242	      8.54717782	      8.54639265	    -21.40960531	      9.67603775	      0.00000000	     14.66795660	    -11.59788504	     -2.70649664	    -60.62802048	    -20.44159087	     15.02746316	      0.00000000	    -36.71620714	    -10.31464510	     -1.98060354
      0.21000000	     46.05661929	      2.39379580	     -1.36222649	     -0.82441132	      1.01719971	     -0.29243482	     26.77733925	    -13.62701119	      8.53904305	      8.54293033	    -21.40370840	      9.68803018	      0.00000000	     14.66387510	    -11.59733552	     -2.70857716	    -60.62634829	    -20.42200192	     15.03230232	      0.00000000	    -36.71370447	    -10.31371845	     -1.98715970
      0.22000000	     46.05347120	      2.39806842	     -1.36345396	     -0.82440060	      1.01719674	     -0.29243830	     26.76746243	    -13.61973360	      8.52668452	      8.54377278	    -21.39783768	      9.69125109	      0.00000000	     14.65967555	    -11.59638569	     -2.71154709	    -60.62440468	    -20.39938266	     15.03829817	      0.00000000	    -36.71036067	    -10.31410059	     -1.99491601
      0.23000000	     46.04963542	      2.40418612	     -1.36571485	     -0.82438792	      1.01718836	     -0.29243601	     26.75725321	    -13.61127705	      8.51089115	      8.54757854	    -21.39416750	      9.68342122	      0.00000000	     14.65722645	    -11.59422706	     -2.71494119	    -60.62313638	    -20.38162109	     15.04465906	      0.00000000	    -36.70775175	    -10.31538205	     -2.00231117
      0.24000000	     46.04606244	      2.41103411	     -1.36744092	     -0.82437902	      1.01718061	     -0.29243559	     26.74810039	    -13.60288228	      8.49581529	      8.55274554	    -21.39488846	      9.66527128	      0.00000000	     14.65718746	    -11.59068996	     -2.71841079	    -60.62291154	    -20.37483048	     15.05008546	      0.00000000	    -36.70737288	    -10.31676152	     -2.00784639
      0.25000000	     46.04397446	      2.41723747	     -1.36789019	     -0.82437646	      1.01718011	     -0.29244238	     26.74072939	    -13.59547165	      8.48678491	      8.55756145	    -21.40109194	      9.64014007	      0.00000000	     14.65925532	    -11.58622964	     -2.72173530	    -60.62334230	    -20.38133270	     15.05293081	      0.00000000	    -36.71018655	    -10.31773673	     -2.01052771
      0.26000000	     46.04369446	      2.42204196	     -1.36777805	     -0.82438412	      1.01718312	     -0.29245551	     26.73450839	    -13.58909298	      8.48748941	      8.56036022	    -21.41204305	      9.61269996	      0.00000000	     14.66224089	    -11.58159583	     -2.72499314	    -60.62367354	    -20.39911192	     15.05157406	      0.00000000	    -36.71647640	    -10.31853918	     -2.00997649
